<svg xmlns="http://www.w3.org/2000/svg" width="27" height="26" viewBox="0 0 27 26" fill="none">
  <path d="M13.4464 25.9196C6.28969 25.9196 0.5 20.1299 0.5 12.9464C0.5 5.76289 6.28969 0 13.4464 0C20.6031 0 26.3928 5.78969 26.3928 12.9464C26.4196 20.1031 20.6031 25.9196 13.4464 25.9196ZM13.4464 1.25979C7.0134 1.2866 1.7866 6.5134 1.7866 12.9732C1.7866 19.433 7.04021 24.6598 13.5 24.633C19.933 24.633 25.1598 19.4062 25.1598 12.9464C25.1598 6.5134 19.9062 1.25979 13.4464 1.25979Z" fill="#038AD3"/>
  <path d="M22.5056 12.33C22.5056 12.2227 22.4252 12.1423 22.2912 12.1423H21.1386C21.0314 12.1423 20.951 12.2227 20.9241 12.33V16.0289H20.4149C19.2355 16.0289 18.2973 15.5465 17.7881 14.7423H15.9922C16.7427 16.565 18.5922 17.5032 20.4149 17.5032H22.2375C22.2912 17.5032 22.3448 17.4764 22.3716 17.4496C22.4252 17.4227 22.4788 17.3423 22.452 17.2887V12.33H22.5056Z" fill="#414141"/>
  <path d="M4.41406 13.4825C4.41406 13.5897 4.49447 13.6701 4.6285 13.6969H5.78107C5.88829 13.6969 5.9687 13.6165 5.99551 13.4825V9.89073H6.50478C7.73777 9.89073 8.64911 10.4 9.1852 11.2577H10.9543C10.2038 9.38145 8.35427 8.4165 6.50478 8.4165H4.6553C4.52128 8.4165 4.44087 8.49692 4.41406 8.63094C4.41406 8.63094 4.41406 8.63094 4.41406 8.65774V13.4825Z" fill="#414141"/>
  <path d="M9.15839 14.7153C8.5419 15.5463 7.52334 16.0555 6.47798 16.0019H4.6285C4.52128 16.0019 4.44087 16.0823 4.41406 16.1896V16.7256V17.2617C4.41406 17.3689 4.49447 17.4494 4.6285 17.4762H6.50478C8.64911 17.4762 10.3646 16.3772 11.0079 14.7153H9.15839Z" fill="#414141"/>
  <path d="M17.7055 11.2577C18.322 10.3732 19.3405 9.86393 20.4127 9.89073H22.289C22.3962 9.89073 22.4766 9.81032 22.5034 9.7031V8.63094C22.5034 8.52372 22.423 8.44331 22.289 8.4165H20.4127C18.2148 8.4165 16.4993 9.54228 15.8828 11.2577H17.7055Z" fill="#414141"/>
  <path d="M17.0687 12.2494H14.1739V9.32771C14.1739 9.2205 14.0935 9.14009 13.9595 9.11328H12.9409C12.8337 9.11328 12.7533 9.19369 12.7265 9.32771V12.2226H9.83162C9.7244 12.2226 9.64399 12.303 9.61719 12.437V13.4555C9.61719 13.5628 9.6976 13.6432 9.83162 13.67H12.7265V16.5648C12.7265 16.672 12.8069 16.7525 12.9409 16.7793H13.9595C14.0667 16.7793 14.1471 16.6988 14.1739 16.5648V13.67H17.0687C17.1759 13.67 17.2564 13.5896 17.2832 13.4555V12.437C17.2832 12.3298 17.2028 12.2494 17.0687 12.2494Z" fill="#038AD3"/>
</svg>